<svg width="400" height="400" viewBox="0 0 400 400" fill="none" xmlns="http://www.w3.org/2000/svg">
<path fill-rule="evenodd" clip-rule="evenodd" d="M400 142.166C400 128.068 392.582 115.039 380.533 107.974L203.474 4.15935C183.355 -7.63726 158.172 7.06256 158.172 30.6032C158.172 41.6904 164.103 51.9077 173.67 57.3013L312.154 135.375C312.634 135.645 313.076 135.965 313.477 136.325C346.788 160.442 348.03 177.801 312.154 216.45L380.533 176.358C392.582 169.293 400 156.264 400 142.166Z" fill="white"/>
<path fill-rule="evenodd" clip-rule="evenodd" d="M0 257.834C0 271.932 7.41849 284.961 19.4673 292.026L196.525 395.841C216.645 407.637 241.828 392.937 241.828 369.397C241.828 358.31 235.897 348.092 226.33 342.699L87.8458 264.625C87.3733 264.359 86.9367 264.045 86.5403 263.691C53.3214 239.671 56.3622 221.489 87.8458 183.55L19.4673 223.642C7.41848 230.707 0 243.736 0 257.834Z" fill="white"/>
<path d="M87.8458 251.399L226.252 173.369C235.867 167.948 241.828 157.68 241.828 146.537C241.828 122.878 216.518 108.105 196.298 119.961L87.8458 183.55C56.3622 221.489 53.3214 239.671 86.5403 263.691C84.9487 262.271 84.007 260.211 84.007 258.012C84.007 255.266 85.4761 252.735 87.8458 251.399Z" fill="url(#paint0_linear_7_217)"/>
<path d="M312.154 148.601L173.748 226.631C164.133 232.052 158.172 242.32 158.172 253.463C158.172 277.122 183.481 291.895 203.702 280.039L312.154 216.45C348.03 177.801 346.788 160.442 313.477 136.325C313.572 136.409 313.664 136.497 313.754 136.586C315.167 137.99 315.993 139.928 315.993 141.988C315.993 144.734 314.524 147.265 312.154 148.601Z" fill="url(#paint1_linear_7_217)"/>
<defs>
<linearGradient id="paint0_linear_7_217" x1="235.556" y1="128.889" x2="66.6667" y2="240" gradientUnits="userSpaceOnUse">
<stop stop-color="#EFEFEF"/>
<stop offset="1" stop-color="#A7A7A7"/>
</linearGradient>
<linearGradient id="paint1_linear_7_217" x1="337.778" y1="160" x2="164.444" y2="271.111" gradientUnits="userSpaceOnUse">
<stop stop-color="#A7A7A7"/>
<stop offset="1" stop-color="#EFEFEF"/>
</linearGradient>
</defs>
</svg>
